# xmcd CD database file
#
# Track frame offsets:
#	150
#	33312
#	48535
#	87127
#	130582
#	136090
#	174347
#
# Disc length: 2543 seconds
#
# Revision: 2
# Processed by: cddbd v1.5.2PL0 Copyright (c) Steve Scherf et al.
# Submitted via: CDex 1.51
#
DISCID=4e09ed07
DTITLE=Keith Jarrett - Byablue
DYEAR=1987
DGENRE=Jazz
TTITLE0=Byablue
TTITLE1=Konya
TTITLE2=Rainbow
TTITLE3=Trieste
TTITLE4=Fantasm
TTITLE5=Yahllah
TTITLE6=Byablue
EXTD=YEAR: 1987
EXTT0=
EXTT1=
EXTT2=
EXTT3=
EXTT4=
EXTT5=
EXTT6=
PLAYORDER=
